<svg version="1.1" xmlns="http://www.w3.org/2000/svg" xmlns:xlink="http://www.w3.org/1999/xlink" x="0px" y="0px"
	 viewBox="0 0 512 512" style="enable-background:new 0 0 512 512;" xml:space="preserve">
<circle style="fill:#F5F5F5;" cx="256" cy="256" r="256"/>
<path style="fill:#E6E6E6;" d="M256,0c-1.34,0-2.664,0.08-4,0.1C391.532,2.248,504,115.956,504,256S391.532,509.752,252,511.9
	c1.336,0.024,2.66,0.1,4,0.1c141.384,0,256-114.616,256-256S397.384,0,256,0z"/>
<path style="fill:#88C5CC;" d="M256,489.244C127.392,489.244,22.752,384.608,22.752,256c0-128.612,104.64-233.244,233.248-233.244
	S489.252,127.388,489.252,256C489.252,384.608,384.608,489.244,256,489.244z"/>
<path style="fill:#80B9BF;" d="M45.508,256c0-124.796,98.524-227,221.868-232.956c-3.768-0.18-7.56-0.288-11.376-0.288
	C127.392,22.756,22.752,127.388,22.752,256c0,128.608,104.64,233.244,233.252,233.244c3.816,0,7.6-0.104,11.376-0.284
	C144.032,483,45.508,380.796,45.508,256z"/>
<g>
	<path style="fill:#F5F5F5;" d="M256,170.668c-47.056,0-85.332,38.28-85.332,85.332c0,47.056,38.276,85.332,85.332,85.332
		s85.332-38.276,85.332-85.332C341.332,208.948,303.056,170.668,256,170.668z M256,318.58c-34.504,0-62.58-28.072-62.58-62.58
		s28.076-62.58,62.58-62.58s62.58,28.072,62.58,62.58S290.504,318.58,256,318.58z"/>
	<polygon style="fill:#F5F5F5;" points="256,108.088 238.928,176.356 256,176.356 273.072,176.356 	"/>
	<polygon style="fill:#F5F5F5;" points="256,403.916 238.928,335.644 256,335.644 273.072,335.644 	"/>
	<polygon style="fill:#F5F5F5;" points="108.084,256 176.356,273.072 176.356,256 176.356,238.932 	"/>
	<polygon style="fill:#F5F5F5;" points="403.916,256 335.644,273.072 335.644,256 335.644,238.932 	"/>
</g>
<polygon style="fill:#E16B5A;" points="396.792,115.204 235.892,235.888 256,256 276.116,276.108 "/>
<polygon style="fill:#E6E6E6;" points="115.208,396.792 235.892,235.888 256,256 276.116,276.108 "/>
</svg>
