<svg version="1.1" xmlns="http://www.w3.org/2000/svg" xmlns:xlink="http://www.w3.org/1999/xlink" x="0px" y="0px"
	 viewBox="0 0 512.001 512.001" style="enable-background:new 0 0 512.001 512.001;" xml:space="preserve">
<path style="fill:#2995CC;" d="M484.657,114.457C532.025-8.463,440.009,0.129,440.009,0.129c-59.032,0-132.82,53.768-132.82,53.768
	s-88.028-23.72-176.056,29.516c-95.932,61.14-92.768,169.724-92.768,169.724C116.373,141.393,224.953,96.061,224.953,96.061v7.376
	C64.721,213.013,26.769,373.313,17.277,405.993c-9.484,32.684-3.164,106.008,64.312,106.008c67.468,0,135.984-54.344,135.984-54.344
	s14.756,3.16,54.82,3.16c168.672,0,208.736-148.64,208.736-148.64H331.421c0,0-10.54,48.496-64.296,48.496
	c-73.792,0-69.584-76.952-69.584-76.952h285.684c13.712-198.192-159.18-226.656-159.18-226.656s61.096-43.22,113.856-43.22
	c83.616,0,44.084,97.944,44.084,97.944L484.657,114.457z M209.209,455.461c0,0-102.956,62.484-149.176,19.192
	c-24.756-43.3,15.472-104.612,15.472-104.612S109.557,433.173,209.209,455.461z M333.057,216.265H197.181
	c0,0-1.72-66.216,69.656-66.216C335.765,150.049,333.057,216.265,333.057,216.265z"/>
</svg>
