<svg version="1.1" xmlns="http://www.w3.org/2000/svg" xmlns:xlink="http://www.w3.org/1999/xlink" x="0px" y="0px"
	 viewBox="0 0 512 512" style="enable-background:new 0 0 512 512;" xml:space="preserve">
<path style="fill:#E16B5A;" d="M497.996,253.792C497.996,415.06,398.152,512,251.188,512c-137.384,0-237.184-97.628-237.184-252.304
	C14.004,113.196,115.152,0,258.024,0C400.204,0,497.996,103.544,497.996,253.792z M253.208,79.392
	c-67.92,0-104.388,67.696-104.388,166c0,71.828,23.748,187.216,113.796,187.216c72.36,0,100.564-75.344,100.564-170.72
	C363.18,161.24,321.72,79.392,253.208,79.392z"/>
<g>
	<path style="fill:#BF5B4D;" d="M244.908,79.784c-2.532-0.236-5.084-0.392-7.7-0.392c-67.92,0-104.388,67.696-104.388,166
		c0,71.828,23.748,187.216,113.796,187.216c2.656,0,5.236-0.128,7.764-0.328c-83.272-6.82-105.568-117.3-105.568-186.888
		C148.82,151.18,182.328,85.124,244.908,79.784z"/>
	<path style="fill:#BF5B4D;" d="M258.024,0c-2.584,0-5.116,0.116-7.672,0.188c137.64,3.984,231.644,106.316,231.644,253.604
		c0,158.208-96.12,254.432-238.52,258.036c2.568,0.072,5.116,0.172,7.712,0.172c146.964,0,246.808-96.936,246.808-258.208
		C497.996,103.544,400.204,0,258.024,0z"/>
</g>
</svg>
